<svg xmlns="http://www.w3.org/2000/svg" width="140" height="24.218"><path fill="#fff" d="M74.044 1.21l-7.192 22.371c-.095.319-.254.637-.572.637h-4.275c-.287 0-.445-.223-.445-.446l.032-.191 7.223-22.371c.095-.318.223-.637.541-.637h4.274c.287 0 .445.223.445.445l-.031.192z"/><path fill="#fff" d="M86.259 1.21l-7.191 22.371c-.096.319-.256.637-.572.637h-4.276c-.287 0-.446-.223-.446-.446l.032-.191 7.224-22.371c.096-.318.221-.637.541-.637h4.273c.287 0 .445.223.445.445l-.03.192z"/><path fill="#fff" d="M14.203 23.676c-.668.223-2.514.542-4.742.542-4.837 0-9.419-2.545-9.419-10.12v-4.01c0-7.573 4.583-10.088 9.419-10.088 2.228 0 4.074.318 4.742.541.445.127.7.255.7.7v3.087c0 .381-.19.636-.604.636h-.096c-1.209-.096-2.959-.255-4.71-.255-2.196 0-3.946 1.146-3.946 5.378v4.01c0 4.232 1.75 5.378 3.946 5.378 1.75 0 3.5-.159 4.71-.255h.096c.414 0 .604.255.604.637v3.087c0 .447-.255.606-.7.732z"/><path fill="#fff" d="M21.73 23.931h-4.264c-.35 0-.573-.287-.573-.636v-22.403c0-.35.223-.604.573-.604h4.264c.35 0 .605.254.605.604v22.403c0 .35-.255.636-.605.636z"/><path fill="#fff" d="M42.321 23.931h-3.119c-.668 0-1.146-.127-1.655-.986l-7.256-12.538c-.127-.191-.191-.255-.287-.255-.095 0-.159.063-.159.255v12.888c0 .35-.286.636-.637.636h-3.755c-.35 0-.637-.287-.637-.636v-21.798c0-.668.542-1.209 1.209-1.209h3.214c.636 0 .954.318 1.336.986l7.542 13.111c.127.191.159.255.254.255.063 0 .159-.063.159-.287v-13.461c0-.35.287-.604.636-.604h3.756c.35 0 .636.254.636.604v21.831c.004.668-.568 1.208-1.237 1.208z"/><path fill="#fff" d="M59.628 23.804c-1.113.159-2.736.414-6.173.414-4.105 0-7.733-1.051-7.733-6.842v-10.565c0-5.792 3.659-6.81 7.765-6.81 3.437 0 5.028.254 6.142.414.446.064.637.223.637.637v2.958c0 .35-.287.637-.637.637h-6.46c-1.496 0-2.037.509-2.037 2.164v2.896h8.242c.35 0 .637.286.637.636v3.023c0 .351-.287.637-.637.637h-8.242v3.374c0 1.655.541 2.164 2.037 2.164h6.46c.35 0 .637.286.637.636v2.96c-.001.413-.192.603-.638.667z"/><path fill="#fff" d="M95.425 24.218c-5.252 0-9.42-2.832-9.42-10.215v-3.787c0-7.383 4.168-10.216 9.42-10.216 5.25 0 9.42 2.833 9.42 10.216v3.787c0 7.383-4.17 10.215-9.42 10.215zm3.945-14.002c0-3.819-1.271-5.442-3.945-5.442s-3.914 1.623-3.914 5.442v3.787c0 3.819 1.24 5.442 3.914 5.442s3.945-1.623 3.945-5.442v-3.787z"/><path fill="#fff" d="M113.462 24.218c-2.516 0-4.393-.287-6.016-.7-.318-.095-.637-.287-.637-.636v-3.119c0-.446.254-.605.574-.605h.094c1.307.128 4.807.382 6.047.382 2.195 0 2.832-.7 2.832-2.228 0-.923-.445-1.432-2.1-2.418l-4.393-2.61c-2.959-1.75-3.754-3.755-3.754-6.078 0-3.501 1.973-6.206 8.146-6.206 2.322 0 5.537.382 6.746.701.256.063.479.223.479.572v3.215c0 .286-.129.541-.543.541h-.063c-.893-.064-4.582-.351-6.746-.351-1.814 0-2.482.541-2.482 1.687 0 .891.414 1.305 2.133 2.228l4.072 2.196c3.309 1.782 4.297 3.882 4.297 6.46.001 3.373-2.227 6.969-8.686 6.969z"/><path fill="#fff" d="M139.374 4.774h-5.154v18.521c0 .35-.287.636-.637.636h-4.17c-.35 0-.637-.286-.637-.636v-18.521h-5.186c-.352 0-.637-.255-.637-.604v-3.278c0-.35.285-.604.637-.604h15.783c.35 0 .668.254.668.604v3.278c.001.349-.317.604-.667.604z"/></svg>